<?xml version="1.0" encoding="UTF-8" standalone="no"?>
<!DOCTYPE svg PUBLIC "-//W3C//DTD SVG 1.1//EN"
 "http://www.w3.org/Graphics/SVG/1.1/DTD/svg11.dtd">
<!-- Generated by graphviz version 12.2.1 (20241206.2353)
 -->
<!-- Title: Reviews Pages: 1 -->
<svg width="675pt" height="196pt"
 viewBox="0.00 0.00 675.00 196.18" xmlns="http://www.w3.org/2000/svg" xmlns:xlink="http://www.w3.org/1999/xlink">
<g id="graph0" class="graph" transform="scale(1 1) rotate(0) translate(4 192.18)">
<title>Reviews</title>
<polygon fill="white" stroke="none" points="-4,4 -4,-192.18 671,-192.18 671,4 -4,4"/>
<g id="clust1" class="cluster">
<title>cluster_reviews</title>
<polygon fill="none" stroke="black" points="8,-8 8,-159 319,-159 319,-8 8,-8"/>
<text text-anchor="middle" x="163.5" y="-141.7" font-family="Times,serif" font-size="14.00">Reviews</text>
</g>
<g id="clust4" class="cluster">
<title>cluster_for_each_review</title>
<polygon fill="none" stroke="black" points="327,-8 327,-161.5 659,-161.5 659,-8 327,-8"/>
<text text-anchor="middle" x="493" y="-144.2" font-family="Times,serif" font-size="14.00">For each review</text>
</g>
<!-- Rule1 -->
<g id="node1" class="node">
<title>Rule1</title>
<polygon fill="none" stroke="black" points="260,-126.5 206,-126.5 206,-90.5 260,-90.5 260,-126.5"/>
<text text-anchor="middle" x="233" y="-103.45" font-family="Times,serif" font-size="14.00">Rule 1</text>
</g>
<!-- Rule2 -->
<g id="node2" class="node">
<title>Rule2</title>
<polygon fill="none" stroke="black" points="116,-126.5 62,-126.5 62,-90.5 116,-90.5 116,-126.5"/>
<text text-anchor="middle" x="89" y="-103.45" font-family="Times,serif" font-size="14.00">Rule 2</text>
</g>
<!-- Rule1&#45;&gt;Rule2 -->
<!-- Chunk1 -->
<g id="node4" class="node">
<title>Chunk1</title>
<polygon fill="none" stroke="black" points="230.25,-52 167.75,-52 167.75,-16 230.25,-16 230.25,-52"/>
<text text-anchor="middle" x="199" y="-28.95" font-family="Times,serif" font-size="14.00">Chunk 1</text>
</g>
<!-- Rule1&#45;&gt;Chunk1 -->
<g id="edge6" class="edge">
<title>Rule1&#45;&gt;Chunk1</title>
<path fill="none" stroke="black" d="M220.19,-80.18C217.42,-74.28 214.49,-68.04 211.73,-62.15"/>
<polygon fill="black" stroke="black" points="216.88,-81.38 224.3,-88.95 223.22,-78.41 216.88,-81.38"/>
<polygon fill="black" stroke="black" points="215.06,-61 207.64,-53.43 208.72,-63.97 215.06,-61"/>
</g>
<!-- Chunk2 -->
<g id="node5" class="node">
<title>Chunk2</title>
<polygon fill="none" stroke="black" points="311.25,-52 248.75,-52 248.75,-16 311.25,-16 311.25,-52"/>
<text text-anchor="middle" x="280" y="-28.95" font-family="Times,serif" font-size="14.00">Chunk 2</text>
</g>
<!-- Rule1&#45;&gt;Chunk2 -->
<g id="edge7" class="edge">
<title>Rule1&#45;&gt;Chunk2</title>
<path fill="none" stroke="black" d="M250.32,-80.78C254.41,-74.48 258.76,-67.77 262.84,-61.47"/>
<polygon fill="black" stroke="black" points="247.46,-78.75 244.96,-89.05 253.34,-82.56 247.46,-78.75"/>
<polygon fill="black" stroke="black" points="265.62,-63.62 268.12,-53.33 259.74,-59.82 265.62,-63.62"/>
</g>
<!-- Chunk3 -->
<g id="node6" class="node">
<title>Chunk3</title>
<polygon fill="none" stroke="black" points="78.25,-52 15.75,-52 15.75,-16 78.25,-16 78.25,-52"/>
<text text-anchor="middle" x="47" y="-28.95" font-family="Times,serif" font-size="14.00">Chunk 3</text>
</g>
<!-- Rule1&#45;&gt;Chunk3 -->
<g id="edge8" class="edge">
<title>Rule1&#45;&gt;Chunk3</title>
<path fill="none" stroke="black" d="M195.41,-87.68C151.08,-69.28 134.42,-68.87 89.13,-52.6"/>
<polygon fill="black" stroke="black" points="193.77,-90.78 204.34,-91.48 196.51,-84.34 193.77,-90.78"/>
<polygon fill="black" stroke="black" points="90.35,-49.32 79.76,-49.14 87.93,-55.89 90.35,-49.32"/>
</g>
<!-- ChunkMore -->
<g id="node7" class="node">
<title>ChunkMore</title>
<polygon fill="none" stroke="black" stroke-dasharray="1,5" points="150,-52 96,-52 96,-16 150,-16 150,-52"/>
<text text-anchor="middle" x="123" y="-28.95" font-family="Times,serif" font-size="14.00">...</text>
</g>
<!-- Rule1&#45;&gt;ChunkMore -->
<g id="edge9" class="edge">
<title>Rule1&#45;&gt;ChunkMore</title>
<path fill="none" stroke="black" stroke-dasharray="1,5" d="M197.33,-83.99C185.05,-75.9 171.31,-66.84 159.01,-58.74"/>
<polygon fill="black" stroke="black" points="195.11,-86.72 205.39,-89.3 198.97,-80.88 195.11,-86.72"/>
<polygon fill="black" stroke="black" points="161.05,-55.89 150.78,-53.31 157.2,-61.73 161.05,-55.89"/>
</g>
<!-- RuleMore -->
<g id="node3" class="node">
<title>RuleMore</title>
<polygon fill="none" stroke="black" stroke-dasharray="1,5" points="188,-126.5 134,-126.5 134,-90.5 188,-90.5 188,-126.5"/>
<text text-anchor="middle" x="161" y="-103.45" font-family="Times,serif" font-size="14.00">...</text>
</g>
<!-- Rule2&#45;&gt;RuleMore -->
<!-- Rule2&#45;&gt;Chunk1 -->
<g id="edge10" class="edge">
<title>Rule2&#45;&gt;Chunk1</title>
<path fill="none" stroke="black" d="M124.67,-83.99C136.95,-75.9 150.69,-66.84 162.99,-58.74"/>
<polygon fill="black" stroke="black" points="123.03,-80.88 116.61,-89.3 126.89,-86.72 123.03,-80.88"/>
<polygon fill="black" stroke="black" points="164.8,-61.73 171.22,-53.31 160.95,-55.89 164.8,-61.73"/>
</g>
<!-- Rule2&#45;&gt;Chunk2 -->
<g id="edge11" class="edge">
<title>Rule2&#45;&gt;Chunk2</title>
<path fill="none" stroke="black" d="M126.58,-87.71C172.67,-68.88 189.89,-68.95 237.65,-52.28"/>
<polygon fill="black" stroke="black" points="125.51,-84.36 117.65,-91.46 128.22,-90.82 125.51,-84.36"/>
<polygon fill="black" stroke="black" points="238.66,-55.63 246.9,-48.96 236.3,-49.04 238.66,-55.63"/>
</g>
<!-- Rule2&#45;&gt;Chunk3 -->
<g id="edge12" class="edge">
<title>Rule2&#45;&gt;Chunk3</title>
<path fill="none" stroke="black" d="M73.35,-80.48C69.81,-74.38 66.06,-67.91 62.53,-61.82"/>
<polygon fill="black" stroke="black" points="70.25,-82.11 78.29,-89.01 76.3,-78.6 70.25,-82.11"/>
<polygon fill="black" stroke="black" points="65.68,-60.27 57.64,-53.37 59.62,-63.78 65.68,-60.27"/>
</g>
<!-- Rule2&#45;&gt;ChunkMore -->
<g id="edge13" class="edge">
<title>Rule2&#45;&gt;ChunkMore</title>
<path fill="none" stroke="black" stroke-dasharray="1,5" d="M101.81,-80.18C104.58,-74.28 107.51,-68.04 110.27,-62.15"/>
<polygon fill="black" stroke="black" points="98.78,-78.41 97.7,-88.95 105.12,-81.38 98.78,-78.41"/>
<polygon fill="black" stroke="black" points="113.28,-63.97 114.36,-53.43 106.94,-61 113.28,-63.97"/>
</g>
<!-- RuleMore&#45;&gt;Chunk1 -->
<g id="edge14" class="edge">
<title>RuleMore&#45;&gt;Chunk1</title>
<path fill="none" stroke="black" stroke-dasharray="1,5" d="M175.32,-80.18C178.41,-74.28 181.68,-68.04 184.77,-62.15"/>
<polygon fill="black" stroke="black" points="172.25,-78.5 170.71,-88.98 178.45,-81.75 172.25,-78.5"/>
<polygon fill="black" stroke="black" points="187.81,-63.88 189.36,-53.4 181.61,-60.63 187.81,-63.88"/>
</g>
<!-- RuleMore&#45;&gt;Chunk2 -->
<g id="edge15" class="edge">
<title>RuleMore&#45;&gt;Chunk2</title>
<path fill="none" stroke="black" stroke-dasharray="1,5" d="M198.07,-84.91C211.96,-76.45 227.77,-66.82 241.77,-58.29"/>
<polygon fill="black" stroke="black" points="196.31,-81.89 189.59,-90.08 199.95,-87.87 196.31,-81.89"/>
<polygon fill="black" stroke="black" points="243.57,-61.29 250.29,-53.1 239.93,-55.31 243.57,-61.29"/>
</g>
<!-- RuleMore&#45;&gt;Chunk3 -->
<g id="edge16" class="edge">
<title>RuleMore&#45;&gt;Chunk3</title>
<path fill="none" stroke="black" stroke-dasharray="1,5" d="M124.03,-83.99C111.19,-75.82 96.79,-66.66 83.94,-58.49"/>
<polygon fill="black" stroke="black" points="122.1,-86.91 132.42,-89.32 125.86,-81 122.1,-86.91"/>
<polygon fill="black" stroke="black" points="86.07,-55.7 75.76,-53.29 82.32,-61.61 86.07,-55.7"/>
</g>
<!-- RuleMore&#45;&gt;ChunkMore -->
<g id="edge17" class="edge">
<title>RuleMore&#45;&gt;ChunkMore</title>
<path fill="none" stroke="black" stroke-dasharray="1,5" d="M146.68,-80.18C143.59,-74.28 140.32,-68.04 137.23,-62.15"/>
<polygon fill="black" stroke="black" points="143.55,-81.75 151.29,-88.98 149.75,-78.5 143.55,-81.75"/>
<polygon fill="black" stroke="black" points="140.39,-60.63 132.64,-53.4 134.19,-63.88 140.39,-60.63"/>
</g>
<!-- Chunk1&#45;&gt;Chunk2 -->
<!-- Chunk2&#45;&gt;Chunk3 -->
<!-- Chunk3&#45;&gt;ChunkMore -->
<!-- Chunk -->
<g id="node8" class="node">
<title>Chunk</title>
<polygon fill="none" stroke="black" points="389,-126.5 335,-126.5 335,-90.5 389,-90.5 389,-126.5"/>
<text text-anchor="middle" x="362" y="-103.45" font-family="Times,serif" font-size="14.00">Chunk</text>
</g>
<!-- RuleFixer -->
<g id="node11" class="node">
<title>RuleFixer</title>
<polygon fill="none" stroke="black" points="490.62,-52 403.38,-52 403.38,-16 490.62,-16 490.62,-52"/>
<text text-anchor="middle" x="447" y="-28.95" font-family="Times,serif" font-size="14.00">Rule N Fixer</text>
</g>
<!-- Chunk&#45;&gt;RuleFixer -->
<g id="edge18" class="edge">
<title>Chunk&#45;&gt;RuleFixer</title>
<path fill="none" stroke="black" d="M382.14,-90.32C392.86,-81.18 406.23,-69.77 418.05,-59.7"/>
<polygon fill="black" stroke="black" points="420.22,-62.44 425.55,-53.29 415.67,-57.12 420.22,-62.44"/>
</g>
<!-- Description -->
<g id="node9" class="node">
<title>Description</title>
<polygon fill="none" stroke="black" points="486.5,-126.5 407.5,-126.5 407.5,-90.5 486.5,-90.5 486.5,-126.5"/>
<text text-anchor="middle" x="447" y="-103.45" font-family="Times,serif" font-size="14.00">Description</text>
</g>
<!-- Description&#45;&gt;RuleFixer -->
<g id="edge19" class="edge">
<title>Description&#45;&gt;RuleFixer</title>
<path fill="none" stroke="black" d="M447,-90.32C447,-82.28 447,-72.5 447,-63.41"/>
<polygon fill="black" stroke="black" points="450.5,-63.57 447,-53.57 443.5,-63.57 450.5,-63.57"/>
</g>
<!-- RuleN -->
<g id="node10" class="node">
<title>RuleN</title>
<polygon fill="none" stroke="black" points="651.25,-129 504.75,-129 504.75,-88 651.25,-88 651.25,-129"/>
<text text-anchor="middle" x="578" y="-111.7" font-family="Times,serif" font-size="14.00">Rule N</text>
<text text-anchor="middle" x="578" y="-95.2" font-family="Times,serif" font-size="14.00">(Rule that was violated)</text>
</g>
<!-- RuleN&#45;&gt;RuleFixer -->
<g id="edge20" class="edge">
<title>RuleN&#45;&gt;RuleFixer</title>
<path fill="none" stroke="black" d="M542.2,-87.69C525.49,-78.44 505.49,-67.37 488.15,-57.78"/>
<polygon fill="black" stroke="black" points="490.06,-54.83 479.62,-53.05 486.67,-60.96 490.06,-54.83"/>
</g>
</g>
</svg>
